<svg width="40" height="40" viewBox="0 0 40 40" fill="none" xmlns="http://www.w3.org/2000/svg">
<path d="M8.44607 10.435C8.69334 10.6505 9.06841 10.6205 9.27881 10.3711L10.7052 8.68059C10.9139 8.43324 10.8826 8.06363 10.6352 7.85488C10.3878 7.64621 10.0182 7.67762 9.80951 7.92488L8.76701 9.16043L8.40154 8.84207C8.15755 8.62941 7.78748 8.65481 7.57482 8.89895C7.36224 9.14293 7.38771 9.51301 7.63177 9.72559L8.44607 10.435Z" fill="#FE6809"/>
<path d="M10.6352 18.7064C10.3878 18.4978 10.0182 18.5292 9.80951 18.7764L8.76701 20.012L8.40154 19.6936C8.15755 19.481 7.78748 19.5064 7.57482 19.7505C7.36224 19.9945 7.38771 20.3646 7.63177 20.5772L8.44607 21.2866C8.69334 21.5021 9.06841 21.4722 9.27881 21.2228L10.7052 19.5322C10.9139 19.2849 10.8825 18.9152 10.6352 18.7064Z" fill="#FE6809"/>
<path d="M10.6352 29.559C10.3878 29.3503 10.0182 29.3817 9.80951 29.629L8.76701 30.8645L8.40154 30.5462C8.15755 30.3335 7.78748 30.3589 7.57482 30.603C7.36224 30.847 7.38771 31.2171 7.63177 31.4297L8.44607 32.1391C8.69334 32.3547 9.06841 32.3247 9.27881 32.0753L10.7052 30.3848C10.9139 30.1374 10.8825 29.7677 10.6352 29.559Z" fill="#FE6809"/>
<path d="M16.2129 8.30664H28.5983C28.922 8.30664 29.1842 8.04438 29.1842 7.7207C29.1842 7.39703 28.922 7.13477 28.5983 7.13477H16.2129C15.8892 7.13477 15.627 7.39703 15.627 7.7207C15.627 8.04438 15.8892 8.30664 16.2129 8.30664Z" fill="#FE6809"/>
<path d="M16.2129 11.1602H28.5983C28.922 11.1602 29.1842 10.8979 29.1842 10.5742C29.1842 10.2505 28.922 9.98828 28.5983 9.98828H16.2129C15.8892 9.98828 15.627 10.2505 15.627 10.5742C15.627 10.8979 15.8892 11.1602 16.2129 11.1602Z" fill="#FE6809"/>
<path d="M11.7185 4.84375H6.5559C5.6059 4.84375 4.83301 5.61664 4.83301 6.56664V7.72094C4.83301 8.04461 5.09527 8.30688 5.41895 8.30688C5.74262 8.30688 6.00488 8.04461 6.00488 7.72094V6.56664C6.00488 6.26281 6.25207 6.01563 6.5559 6.01563H11.7185C12.0223 6.01563 12.2694 6.26281 12.2694 6.56664V11.7292C12.2694 12.033 12.0223 12.2802 11.7185 12.2802H6.5559C6.25207 12.2802 6.00488 12.033 6.00488 11.7292V10.5174C6.00488 10.1938 5.74262 9.93149 5.41895 9.93149C5.09527 9.93149 4.83301 10.1938 4.83301 10.5174V11.7292C4.83301 12.6791 5.6059 13.452 6.5559 13.452H11.7185C12.6684 13.452 13.4413 12.6791 13.4413 11.7292V6.56664C13.4412 5.61664 12.6684 4.84375 11.7185 4.84375Z" fill="#FE6809"/>
<path d="M11.7185 15.6963H6.5559C5.6059 15.6963 4.83301 16.4692 4.83301 17.4192V22.5818C4.83301 23.5317 5.6059 24.3046 6.5559 24.3046H11.7185C12.6684 24.3046 13.4413 23.5317 13.4413 22.5818V17.4192C13.4412 16.4692 12.6684 15.6963 11.7185 15.6963ZM12.2693 22.5818C12.2693 22.8856 12.0222 23.1327 11.7184 23.1327H6.5559C6.25207 23.1327 6.00488 22.8856 6.00488 22.5818V17.4192C6.00488 17.1154 6.25207 16.8682 6.5559 16.8682H11.7185C12.0223 16.8682 12.2694 17.1154 12.2694 17.4192L12.2693 22.5818Z" fill="#FE6809"/>
<path d="M11.7185 26.5479H6.5559C5.6059 26.5479 4.83301 27.3207 4.83301 28.2707V33.4333C4.83301 34.3832 5.6059 35.1561 6.5559 35.1561H11.7185C12.6684 35.1561 13.4413 34.3832 13.4413 33.4333V28.2707C13.4412 27.3207 12.6684 26.5479 11.7185 26.5479ZM12.2693 33.4333C12.2693 33.7371 12.0222 33.9843 11.7184 33.9843H6.5559C6.25207 33.9843 6.00488 33.7371 6.00488 33.4333V28.2707C6.00488 27.9669 6.25207 27.7197 6.5559 27.7197H11.7185C12.0223 27.7197 12.2694 27.9669 12.2694 28.2707L12.2693 33.4333Z" fill="#FE6809"/>
<path d="M37.0414 5.19195C35.5098 4.52484 33.721 5.22773 33.0537 6.7593L32.8784 7.16164V4.14C32.8784 1.85719 31.0212 0 28.7384 0H5.27867C2.99586 0 1.13867 1.85719 1.13867 4.14V35.86C1.13867 38.1428 2.99586 40 5.27867 40H28.7384C31.0212 40 32.8784 38.1428 32.8784 35.86V22.3316C33.1787 21.6423 38.2757 9.94398 38.6087 9.17969C39.2777 7.64445 38.5766 5.86086 37.0414 5.19195ZM22.1896 31.6934H16.213C15.8894 31.6934 15.6271 31.9557 15.6271 32.2794C15.6271 32.603 15.8894 32.8653 16.213 32.8653H21.6816C21.4048 33.5308 21.2655 34.2334 21.2702 34.9561V34.9562L21.2962 38.8281H5.27867C3.64203 38.8281 2.31055 37.4966 2.31055 35.86V4.14C2.31055 2.50336 3.64203 1.17188 5.27867 1.17188H28.7384C30.375 1.17188 31.7065 2.50336 31.7065 4.14V9.85125C30.9661 11.5505 28.8855 16.3256 28.1616 17.9872H16.2131C15.8895 17.9872 15.6272 18.2495 15.6272 18.5731C15.6272 18.8968 15.8895 19.1591 16.2131 19.1591H27.651L26.9182 20.841H16.2131C15.8895 20.841 15.6272 21.1033 15.6272 21.427C15.6272 21.7506 15.8895 22.0129 16.2131 22.0129H26.4076L23.4331 28.8396H16.2131C15.8895 28.8396 15.6272 29.1019 15.6272 29.4255C15.6272 29.7492 15.8895 30.0115 16.2131 30.0115H22.9225L22.1896 31.6934ZM22.4421 34.9483C22.4409 34.7615 22.4532 34.5766 22.4762 34.3937C22.9887 34.617 22.2743 34.3057 25.572 35.7425C25.4537 35.8839 25.3267 36.0188 25.1891 36.1451L22.4669 38.642L22.4421 34.9483ZM31.7065 35.86C31.7065 37.4966 30.375 38.8281 28.7384 38.8281H23.9977L25.9812 37.0088C26.5362 36.4996 26.9702 35.8914 27.2712 35.2008L31.7065 25.0211V35.86ZM26.1968 34.7327C26.1963 34.7337 26.1958 34.7347 26.1953 34.7358L25.0294 34.2278L27.7874 27.8978C27.9166 27.6011 27.7809 27.2559 27.4843 27.1266C27.1875 26.9974 26.8423 27.1331 26.713 27.4297L23.955 33.7597L22.7891 33.2517C22.7896 33.2507 22.7899 33.2496 22.7904 33.2486L31.7481 12.6898L32.9141 13.1977L27.8071 24.9187C27.6779 25.2155 27.8136 25.5607 28.1102 25.69C28.4086 25.8199 28.7529 25.682 28.8815 25.3869L33.9884 13.6658L35.1544 14.1737C35.0119 14.5009 26.3323 34.4216 26.1968 34.7327ZM35.6226 13.0994L32.2162 11.6153L32.7977 10.2808L36.2041 11.7649L35.6226 13.0994ZM37.5344 8.71156L36.6721 10.6905L33.2658 9.20641L34.128 7.22742C34.5371 6.28828 35.6341 5.85711 36.5733 6.26633C37.5145 6.67633 37.9448 7.77 37.5344 8.71156Z" fill="#FE6809"/>
</svg>
