<svg width="10" height="10" viewBox="0 0 10 10" fill="none" xmlns="http://www.w3.org/2000/svg">
<path d="M5.00014 7.91668C4.91738 7.91716 4.83636 7.89298 4.76739 7.84723C4.69842 7.80148 4.64464 7.73623 4.61291 7.6598C4.58117 7.58336 4.57292 7.49921 4.58919 7.41806C4.60547 7.33692 4.64555 7.26246 4.70431 7.20418L6.91264 5.00001L4.70431 2.79584C4.63605 2.71614 4.60038 2.6136 4.60443 2.50874C4.60848 2.40387 4.65195 2.3044 4.72616 2.23019C4.80037 2.15599 4.89984 2.11252 5.00471 2.10847C5.10957 2.10441 5.2121 2.14008 5.29181 2.20834L7.79181 4.70834C7.86942 4.78641 7.91298 4.89202 7.91298 5.00209C7.91298 5.11217 7.86942 5.21778 7.79181 5.29585L5.29181 7.79585C5.2142 7.87282 5.10945 7.91622 5.00014 7.91668Z" fill="white"/>
<path d="M2.50014 7.91658C2.41738 7.91706 2.33636 7.89289 2.26739 7.84714C2.19842 7.80139 2.14464 7.73613 2.11291 7.6597C2.08117 7.58326 2.07292 7.49911 2.08919 7.41796C2.10547 7.33682 2.14555 7.26236 2.20431 7.20408L4.41265 4.99991L2.20431 2.79575C2.12585 2.71729 2.08177 2.61087 2.08177 2.49991C2.08177 2.38896 2.12585 2.28254 2.20431 2.20408C2.28277 2.12562 2.38919 2.08154 2.50014 2.08154C2.6111 2.08154 2.71752 2.12562 2.79598 2.20408L5.29598 4.70408C5.37358 4.78215 5.41714 4.88775 5.41714 4.99783C5.41714 5.10791 5.37358 5.21351 5.29598 5.29158L2.79598 7.79158C2.75739 7.83095 2.71137 7.86227 2.66059 7.88373C2.60981 7.90519 2.55527 7.91635 2.50014 7.91658Z" fill="white"/>
</svg>
