<svg width="43" height="41" viewBox="0 0 43 41" fill="none" xmlns="http://www.w3.org/2000/svg">
<g clip-path="url(#clip0_0_1527)">
<path fill-rule="evenodd" clip-rule="evenodd" d="M19.0973 14.808C15.1057 11.5149 11.8714 7.59312 9.44099 3.02401C8.9549 2.11394 7.82385 1.7668 6.90777 2.25467C6.00103 2.74254 5.65509 3.8778 6.14119 4.79725C8.81466 9.79794 12.3482 14.0949 16.723 17.7071C17.5176 18.3639 18.7047 18.2513 19.359 17.4538C20.0134 16.6469 19.8918 15.4648 19.0973 14.808Z" fill="white"/>
<path fill-rule="evenodd" clip-rule="evenodd" d="M16.9686 1.98263C17.1743 5.77302 17.3612 9.5634 17.5949 13.3538C17.6604 14.3858 18.5484 15.1739 19.5767 15.1083C20.6049 15.0426 21.3901 14.1513 21.3247 13.1192C21.091 9.33823 20.904 5.55725 20.6983 1.76685C20.6422 0.737634 19.7543 -0.0551622 18.7259 0.00300721C17.6977 0.0611765 16.9031 0.947776 16.9686 1.98263Z" fill="white"/>
<path fill-rule="evenodd" clip-rule="evenodd" d="M30.8464 2.75176C28.4533 6.37327 25.7426 9.71328 23.013 13.0909C22.3587 13.8977 22.4801 15.0799 23.284 15.7273C24.0879 16.384 25.2658 16.262 25.9108 15.4552C28.7152 11.9931 31.5008 8.54989 33.9686 4.82518C34.5389 3.96202 34.2957 2.79867 33.4357 2.22636C32.5851 1.65405 31.4165 1.8886 30.8464 2.75176Z" fill="white"/>
<path fill-rule="evenodd" clip-rule="evenodd" d="M40.1163 16.2154C33.6289 16.5062 26.7396 16.5156 20.2522 16.1028C19.2239 16.0465 18.3359 16.8252 18.2704 17.8666C18.205 18.8986 18.9902 19.7899 20.0185 19.8557C26.6367 20.2685 33.6663 20.2591 40.2846 19.9682C41.3129 19.9214 42.1167 19.0394 42.0699 18.0074C42.0233 16.9754 41.1446 16.1685 40.1163 16.2154Z" fill="white"/>
<path fill-rule="evenodd" clip-rule="evenodd" d="M16.7179 17.4066C20.7188 22.3228 24.8599 27.1452 28.5711 32.2866C29.1787 33.1216 30.3472 33.3093 31.1885 32.6994C32.0204 32.0896 32.2074 30.9168 31.5998 30.0818C27.8419 24.8841 23.6541 20.0053 19.6065 15.0328C18.9522 14.2353 17.7743 14.1134 16.9797 14.7701C16.1758 15.4269 16.0635 16.609 16.7179 17.4066Z" fill="white"/>
<path fill-rule="evenodd" clip-rule="evenodd" d="M17.9296 18.8336C18.9765 23.9562 19.2663 28.8538 19.3411 34.0421C19.3504 35.0741 20.2011 35.8997 21.2294 35.8903C22.267 35.8715 23.0896 35.0272 23.0709 33.9857C22.9961 28.5535 22.6876 23.4402 21.5939 18.0737C21.3789 17.0603 20.3975 16.4036 19.3785 16.6193C18.3689 16.8258 17.7146 17.8203 17.9296 18.8336Z" fill="white"/>
<path fill-rule="evenodd" clip-rule="evenodd" d="M18.0984 18.4207C15.0697 24.5003 13.5086 31.2555 10.2649 37.2037C9.76944 38.1044 10.1059 39.2491 11.0126 39.7463C11.9194 40.2436 13.0505 39.9057 13.546 39.005C16.8084 33.0192 18.3881 26.2266 21.4448 20.1C21.9029 19.1713 21.5289 18.0454 20.6129 17.5763C19.6874 17.1165 18.5658 17.4919 18.0984 18.4207Z" fill="white"/>
<path fill-rule="evenodd" clip-rule="evenodd" d="M19.7652 17.0412C13.7358 18.1108 7.71583 18.5987 1.64909 19.3211C0.620837 19.4431 -0.108293 20.3719 0.0132285 21.4039C0.13475 22.436 1.06027 23.1678 2.08853 23.0459C8.22071 22.3234 14.3155 21.8167 20.4196 20.7378C21.4292 20.5502 22.1116 19.5744 21.934 18.5611C21.747 17.5385 20.784 16.8536 19.7652 17.0412Z" fill="white"/>
<path fill-rule="evenodd" clip-rule="evenodd" d="M23.9608 14.1893C22.7175 14.133 21.5396 14.0485 20.3245 13.8703C19.2962 13.7202 18.3521 14.4333 18.2025 15.4559C18.0529 16.4785 18.7633 17.4356 19.7822 17.5857C21.1283 17.7827 22.4277 17.8765 23.7924 17.9328C24.8208 17.9797 25.6994 17.1822 25.7368 16.1407C25.7835 15.1087 24.989 14.2363 23.9608 14.1893Z" fill="white"/>
</g>
<defs>
<clipPath id="clip0_0_1527">
<rect width="43" height="41" fill="white"/>
</clipPath>
</defs>
</svg>
