<svg width="20" height="20" viewBox="0 0 20 20" fill="none" xmlns="http://www.w3.org/2000/svg">
<path d="M19.5389 10.4077H0.462014C0.235091 10.4077 0.0517578 10.2244 0.0517578 9.99745C0.0517578 9.77052 0.235091 9.58719 0.462014 9.58719H18.5479L16.0582 7.09745C15.8979 6.93719 15.8979 6.67693 16.0582 6.51668C16.2184 6.35642 16.4787 6.35642 16.6389 6.51668L19.83 9.7077C19.9479 9.82565 19.9825 10.0013 19.9184 10.1551C19.8543 10.3077 19.7043 10.4077 19.5389 10.4077Z" fill="#1F1F1F"/>
<path d="M16.3445 13.6023C16.2394 13.6023 16.1342 13.5625 16.0548 13.4818C15.8945 13.3215 15.8945 13.0613 16.0548 12.901L19.2496 9.70613C19.4099 9.54587 19.6701 9.54587 19.8304 9.70613C19.9907 9.86639 19.9907 10.1266 19.8304 10.2869L16.6355 13.4818C16.5548 13.5625 16.4496 13.6023 16.3445 13.6023Z" fill="#1F1F1F"/>
</svg>
