<svg width="32" height="41" viewBox="0 0 32 41" fill="none" xmlns="http://www.w3.org/2000/svg">
<path d="M27.1655 26.6875L27.1806 26.6442C27.2897 26.2346 27.46 25.844 27.6859 25.4853C27.9726 25.1861 28.3038 24.9328 28.6676 24.7345C29.4016 24.3601 30.0108 23.7805 30.4212 23.066C30.7073 22.2983 30.7705 21.4654 30.6035 20.6633C30.5269 20.2366 30.5155 19.8008 30.5696 19.3707C30.6987 18.9793 30.8863 18.6097 31.126 18.2744C31.6307 17.6083 31.934 16.8115 32 15.9784C31.9337 15.1457 31.6307 14.3494 31.1268 13.6833C30.8866 13.3478 30.6987 12.9778 30.5694 12.586C30.5153 12.1563 30.5267 11.7207 30.6033 11.2944C30.7702 10.4924 30.7073 9.6595 30.4219 8.89163C30.0113 8.17789 29.4025 7.59861 28.6692 7.22408C28.305 7.0252 27.9735 6.77135 27.6866 6.47146C27.4606 6.1128 27.29 5.72213 27.1805 5.31261C26.9914 4.51093 26.5766 3.78017 25.9852 3.20675C25.3128 2.74457 24.519 2.49103 23.7031 2.47786C23.2888 2.45953 22.8799 2.37636 22.4913 2.23137C22.1446 2.01194 21.8332 1.74122 21.5676 1.42843C21.0506 0.779215 20.3539 0.296547 19.5644 0.0406127C18.7657 -0.0723963 17.9513 0.0516706 17.2224 0.397413C16.8342 0.567796 16.4218 0.676254 16 0.718835C15.5786 0.676409 15.1664 0.568036 14.7787 0.397679C14.0497 0.0513726 13.2347 -0.0723024 12.4358 0.0421237C11.6467 0.297123 10.9502 0.778885 10.4332 1.42728C10.1681 1.74053 9.8566 2.01132 9.50951 2.23021C9.12094 2.3752 8.71203 2.45838 8.29769 2.4767C7.48184 2.48987 6.688 2.74341 6.01556 3.20559C5.42413 3.7794 5.00909 4.51035 4.81938 5.31226C4.71029 5.72178 4.53995 6.11247 4.31413 6.4711C4.02739 6.77033 3.69624 7.02358 3.33236 7.22195C2.59843 7.59629 1.98919 8.17597 1.57884 8.89039C1.29268 9.65809 1.22948 10.4911 1.39653 11.2931C1.47313 11.7198 1.48455 12.1556 1.4304 12.5857C1.30127 12.9771 1.11367 13.3467 0.873956 13.682C0.369237 14.3483 0.0659541 15.1452 0 15.9784C0.0663265 16.811 0.369313 17.6074 0.873244 18.2735C1.1134 18.609 1.30131 18.9789 1.43058 19.3707C1.48477 19.8007 1.47336 20.2363 1.39671 20.6628C1.22979 21.4649 1.29267 22.2977 1.57813 23.0656C1.98866 23.7793 2.59748 24.3586 3.33076 24.7331C3.69505 24.932 4.0265 25.1859 4.31342 25.4858C4.53937 25.8444 4.70997 26.2351 4.81947 26.6446L4.83591 26.6919C4.83307 26.6965 4.82827 26.6989 4.82551 26.7036L0.240445 34.6451C0.0728595 34.935 -0.00937683 35.2664 0.00321494 35.6011C0.0158067 35.9358 0.122714 36.2601 0.311614 36.5366C0.500513 36.8132 0.763716 37.0307 1.07088 37.1642C1.37805 37.2976 1.71668 37.3416 2.04773 37.2909L5.14231 36.8204L6.28293 39.7379C6.40364 40.0504 6.61083 40.3221 6.88028 40.5212C7.14972 40.7202 7.47027 40.8385 7.80444 40.862C7.85043 40.8655 7.89644 40.8673 7.94249 40.8673C8.25416 40.868 8.56047 40.7862 8.83021 40.63C9.09995 40.4739 9.32348 40.249 9.47804 39.9784L14.2272 31.7515C14.416 31.6907 14.5998 31.624 14.7775 31.5591C15.1657 31.3888 15.5782 31.2804 16 31.2379C16.4214 31.2804 16.8336 31.3887 17.2213 31.5591C17.3991 31.6242 17.585 31.6887 17.7739 31.7497L17.7778 31.7614L22.5217 39.9784C22.6763 40.249 22.8998 40.4739 23.1695 40.63C23.4393 40.7862 23.7456 40.868 24.0572 40.8673C24.1032 40.8673 24.1492 40.8655 24.1953 40.862C24.5297 40.8384 24.8505 40.72 25.1201 40.5208C25.3897 40.3216 25.597 40.0498 25.7179 39.7371L26.8576 36.8204L29.9509 37.2909C30.2821 37.3418 30.6209 37.2981 30.9282 37.1647C31.2356 37.0314 31.499 36.8139 31.6881 36.5373C31.8771 36.2607 31.9842 35.9363 31.9968 35.6015C32.0095 35.2667 31.9272 34.9351 31.7596 34.6451L27.1655 26.6875ZM7.9384 39.0895L6.54 35.5105C6.46593 35.323 6.33054 35.1661 6.15589 35.0653C5.98124 34.9646 5.77762 34.926 5.57822 34.9558L1.78036 35.5339L5.81689 28.5422C5.87863 28.6154 5.9447 28.6848 6.01476 28.75C6.6872 29.2122 7.48104 29.4658 8.29689 29.4789C8.71123 29.4972 9.12014 29.5804 9.50871 29.7254C9.8554 29.9448 10.1668 30.2156 10.4324 30.5283C10.8986 31.0781 11.4833 31.5151 12.1426 31.8065L7.9384 39.0895ZM17.8311 29.889C17.2504 29.6403 16.6307 29.4952 16 29.4602C15.3692 29.4948 14.7494 29.6399 14.1689 29.889C13.7546 30.0912 13.2983 30.1923 12.8373 30.1841C12.3967 29.9824 12.0109 29.6778 11.7124 29.2961C11.3113 28.8283 10.8316 28.4342 10.2948 28.1316C9.7227 27.8877 9.11234 27.7456 8.49129 27.7117C8.01986 27.7111 7.55578 27.5948 7.13973 27.3731C6.8298 26.9977 6.61244 26.5546 6.50516 26.0797C6.34014 25.4758 6.07254 24.9047 5.71404 24.3914C5.30751 23.9232 4.82218 23.5298 4.28 23.2291C3.84569 23.0154 3.47009 22.699 3.18578 22.3073C3.06523 21.8357 3.05749 21.3424 3.1632 20.8673C3.26861 20.2445 3.26978 19.6085 3.16667 18.9853C3.00106 18.3934 2.73535 17.8342 2.38107 17.332C2.07259 16.9367 1.86547 16.472 1.77778 15.9784C1.86535 15.4848 2.07248 15.0201 2.38107 14.6251C2.73569 14.123 3.00142 13.5638 3.16667 12.9717C3.26981 12.3485 3.26864 11.7124 3.1632 11.0895C3.05728 10.6144 3.06532 10.1209 3.18667 9.6495C3.47067 9.25689 3.84646 8.93978 4.28124 8.72586C4.8237 8.42547 5.30935 8.03239 5.71618 7.56443C6.07383 7.05125 6.34073 6.48047 6.50524 5.87697C6.613 5.40187 6.83061 4.95864 7.14062 4.58283C7.55667 4.36114 8.02075 4.24488 8.49218 4.24426C9.11334 4.21033 9.72379 4.06813 10.296 3.82408C10.8331 3.52205 11.3129 3.1279 11.7135 2.65963C12.0121 2.27816 12.3979 1.97393 12.8385 1.77252C13.2991 1.76516 13.7549 1.86626 14.1692 2.06763C14.7498 2.3163 15.3694 2.46148 16 2.49661C16.6308 2.462 17.2506 2.31686 17.8311 2.06781C18.2457 1.86651 18.7018 1.76542 19.1627 1.7727C19.6033 1.97441 19.9891 2.27894 20.2876 2.6607C20.6887 3.12849 21.1684 3.52256 21.7052 3.82515C22.2773 4.06907 22.8877 4.21118 23.5087 4.24506C23.9801 4.24569 24.4442 4.36194 24.8603 4.58364C25.1702 4.95911 25.3876 5.40216 25.4948 5.87706C25.6599 6.48101 25.9275 7.05211 26.286 7.56541C26.6925 8.03356 27.1778 8.42693 27.72 8.72772C28.1543 8.94138 28.5299 9.25779 28.8142 9.6495C28.9348 10.1211 28.9425 10.6144 28.8368 11.0895C28.7314 11.7123 28.7302 12.3483 28.8333 12.9715C28.9989 13.5634 29.2646 14.1225 29.6189 14.6248C29.9274 15.02 30.1345 15.4847 30.2222 15.9784C30.1346 16.472 29.9275 16.9366 29.6189 17.3317C29.2643 17.8338 28.9986 18.393 28.8333 18.9851C28.7302 19.6083 28.7314 20.2444 28.8368 20.8673C28.9427 21.3424 28.9347 21.8359 28.8133 22.3073C28.5293 22.6999 28.1535 23.017 27.7188 23.2309C27.1763 23.5313 26.6907 23.9244 26.2838 24.3923C25.9262 24.9055 25.6593 25.4763 25.4948 26.0798C25.387 26.555 25.1694 26.9983 24.8594 27.3741C24.4433 27.5958 23.9793 27.7121 23.5078 27.7127C22.8867 27.7466 22.2762 27.8888 21.704 28.1329C21.1669 28.4349 20.6871 28.8291 20.2865 29.2973C19.9879 29.6788 19.6021 29.983 19.1615 30.1844C18.7011 30.1912 18.2454 30.09 17.8311 29.889ZM26.4222 34.9556C26.2229 34.9261 26.0194 34.9648 25.8448 35.0655C25.6702 35.1662 25.5347 35.3229 25.4604 35.5103L24.0616 39.0895L19.8572 31.8065C20.5162 31.5154 21.1007 31.0788 21.5668 30.5295C21.8319 30.2162 22.1434 29.9455 22.4905 29.7266C22.8791 29.5816 23.288 29.4984 23.7023 29.4801C24.5182 29.4669 25.312 29.2134 25.9844 28.7512C26.0548 28.6856 26.1212 28.6159 26.1832 28.5424L30.2196 35.5339L26.4222 34.9556ZM26.6667 15.9784C26.6667 13.8687 26.0411 11.8064 24.869 10.0523C23.6969 8.29818 22.031 6.93101 20.082 6.12368C18.1329 5.31634 15.9882 5.10511 13.919 5.51668C11.8499 5.92826 9.94929 6.94416 8.45753 8.43592C6.96577 9.92768 5.94987 11.8283 5.53829 13.8974C5.12671 15.9666 5.33795 18.1113 6.14529 20.0603C6.95262 22.0094 8.31979 23.6753 10.0739 24.8474C11.828 26.0195 13.8903 26.6451 16 26.6451C18.828 26.642 21.5393 25.5172 23.5391 23.5175C25.5388 21.5177 26.6636 18.8064 26.6667 15.9784ZM16 24.8673C14.2419 24.8673 12.5234 24.346 11.0616 23.3692C9.59983 22.3925 8.46052 21.0043 7.78774 19.38C7.11496 17.7558 6.93893 15.9685 7.28191 14.2443C7.62489 12.52 8.47147 10.9361 9.71461 9.693C10.9577 8.44986 12.5416 7.60328 14.2659 7.2603C15.9901 6.91732 17.7774 7.09335 19.4016 7.76613C21.0259 8.43891 22.4141 9.57822 23.3908 11.04C24.3676 12.5018 24.8889 14.2203 24.8889 15.9784C24.8861 18.335 23.9487 20.5943 22.2823 22.2607C20.6159 23.9271 18.3566 24.8645 16 24.8673ZM20.0486 12.5722C20.1458 12.6369 20.2293 12.7201 20.2943 12.8171C20.3593 12.9141 20.4045 13.0229 20.4274 13.1374C20.4503 13.2519 20.4504 13.3697 20.4277 13.4843C20.405 13.5988 20.3599 13.7077 20.2951 13.8048L16.7396 19.1381C16.6666 19.2475 16.5703 19.3393 16.4575 19.4069C16.3448 19.4745 16.2185 19.5163 16.0876 19.5292C16.0581 19.5322 16.0286 19.5339 16 19.5339C15.7643 19.5339 15.5382 19.4402 15.3716 19.2735L12.7049 16.6068C12.543 16.4392 12.4534 16.2147 12.4554 15.9816C12.4574 15.7485 12.5509 15.5256 12.7157 15.3608C12.8805 15.196 13.1035 15.1025 13.3365 15.1005C13.5696 15.0984 13.7941 15.188 13.9618 15.3499L15.862 17.2501L18.8159 12.8187C18.9468 12.6226 19.1501 12.4865 19.3813 12.4403C19.6124 12.3941 19.8524 12.4415 20.0486 12.5722Z" fill="#FE6809"/>
</svg>
