<svg width="20" height="20" viewBox="0 0 20 20" fill="none" xmlns="http://www.w3.org/2000/svg">
<path d="M0.461063 10.4077H19.538C19.7649 10.4077 19.9482 10.2244 19.9482 9.99745C19.9482 9.77052 19.7649 9.58719 19.538 9.58719H1.45209L3.94183 7.09745C4.10209 6.93719 4.10209 6.67693 3.94183 6.51668C3.78158 6.35642 3.52132 6.35642 3.36106 6.51668L0.170038 9.7077C0.0520878 9.82565 0.0174732 10.0013 0.0815754 10.1551C0.145678 10.3077 0.295677 10.4077 0.461063 10.4077Z" fill="white"/>
<path d="M3.65549 13.6023C3.76062 13.6023 3.86575 13.5625 3.94524 13.4818C4.10549 13.3215 4.10549 13.0613 3.94524 12.901L0.750365 9.70613C0.590108 9.54587 0.329853 9.54587 0.169597 9.70613C0.00934029 9.86639 0.00934029 10.1266 0.169597 10.2869L3.36447 13.4818C3.44524 13.5625 3.55036 13.6023 3.65549 13.6023Z" fill="white"/>
</svg>
