<svg width="22" height="22" viewBox="0 0 22 22" fill="none" xmlns="http://www.w3.org/2000/svg">
<g clip-path="url(#clip0_0_175)">
<path d="M2.3509 21.5454C2.22219 21.5454 2.09343 21.5123 1.97725 21.4461C1.74257 21.3123 1.59766 21.0629 1.59766 20.7921V1.20672C1.59766 0.935981 1.74257 0.686601 1.97725 0.552728C2.21409 0.419578 2.50175 0.422518 2.73416 0.557886L19.3056 10.3506C19.5351 10.4867 19.6756 10.7332 19.6756 10.9995C19.6756 11.2658 19.5351 11.5122 19.3056 11.6483L2.73416 21.441C2.61571 21.5102 2.48328 21.5455 2.3509 21.5454ZM3.10415 2.52641V19.4725L17.4416 10.9995L3.10415 2.52641Z" fill="white"/>
</g>
<defs>
<clipPath id="clip0_0_175">
<rect width="21.0909" height="21.0909" fill="white" transform="translate(0.0908203 0.45459)"/>
</clipPath>
</defs>
</svg>
